HIERARCHY
ROOT Hips
{
	OFFSET -14.64140 90.27770 -84.91600
	CHANNELS 6 Xposition Yposition Zposition Zrotation Xrotation Yrotation
	JOINT Spine
	{
		OFFSET 0.00000 13.20850 -1.60436
		CHANNELS 3 Zrotation Xrotation Yrotation
		JOINT Spine1
		{
			OFFSET 0.00000 8.61716 0.00000
			CHANNELS 3 Zrotation Xrotation Yrotation
			JOINT Spine2
			{
				OFFSET 0.00000 8.61717 0.00000
				CHANNELS 3 Zrotation Xrotation Yrotation
				JOINT Spine3
				{
					OFFSET 0.00000 8.61717 0.00000
					CHANNELS 3 Zrotation Xrotation Yrotation
					JOINT Neck
					{
						OFFSET 0.00000 11.07920 1.10792
						CHANNELS 3 Zrotation Xrotation Yrotation
						JOINT Neck1
						{
							OFFSET 0.00000 7.08032 0.00000
							CHANNELS 3 Zrotation Xrotation Yrotation
							JOINT Head
							{
								OFFSET 0.00000 7.08031 0.00000
								CHANNELS 3 Zrotation Xrotation Yrotation
								End site
								{
									OFFSET 0.00000 0.00000 0.00000
								}
							}
						}
					}
					JOINT RightShoulder
					{
						OFFSET -0.01000 7.91373 5.19711
						CHANNELS 3 Zrotation Xrotation Yrotation
						JOINT RightArm
						{
							OFFSET -18.41580 0.00000 0.00000
							CHANNELS 3 Zrotation Xrotation Yrotation
							JOINT RightForeArm
							{
								OFFSET -29.11090 0.00000 0.00000
								CHANNELS 3 Zrotation Xrotation Yrotation
								JOINT RightHand
								{
									OFFSET -24.65040 0.00000 0.00000
									CHANNELS 3 Zrotation Xrotation Yrotation
									JOINT RightHandThumb1
									{
										OFFSET -5.35114 -0.85590 3.97906
										CHANNELS 3 Zrotation Xrotation Yrotation
										JOINT RightHandThumb2
										{
											OFFSET -4.52789 0.00000 0.00000
											CHANNELS 3 Zrotation Xrotation Yrotation
											JOINT RightHandThumb3
											{
												OFFSET -2.46976 0.00000 0.00000
												CHANNELS 3 Zrotation Xrotation Yrotation
												End site
												{
													OFFSET 0.00000 0.00000 0.00000
												}
											}
										}
									}
									JOINT RightHandIndex1
									{
										OFFSET -14.26970 0.00000 2.88139
										CHANNELS 3 Zrotation Xrotation Yrotation
										JOINT RightHandIndex2
										{
											OFFSET -5.48836 0.00000 0.00000
											CHANNELS 3 Zrotation Xrotation Yrotation
											JOINT RightHandIndex3
											{
												OFFSET -3.01859 0.00000 0.00000
												CHANNELS 3 Zrotation Xrotation Yrotation
												End site
												{
													OFFSET 0.00000 0.00000 0.00000
												}
											}
										}
									}
									JOINT RightHandMiddle1
									{
										OFFSET -14.26970 0.00000 -0.09147
										CHANNELS 3 Zrotation Xrotation Yrotation
										JOINT RightHandMiddle2
										{
											OFFSET -6.17441 0.00000 0.00000
											CHANNELS 3 Zrotation Xrotation Yrotation
											JOINT RightHandMiddle3
											{
												OFFSET -3.56743 0.00000 0.00000
												CHANNELS 3 Zrotation Xrotation Yrotation
												End site
												{
													OFFSET 0.00000 0.00000 0.00000
												}
											}
										}
									}
									JOINT RightHandRing1
									{
										OFFSET -12.69180 0.00000 -3.06433
										CHANNELS 3 Zrotation Xrotation Yrotation
										JOINT RightHandRing2
										{
											OFFSET -5.62556 0.00000 0.00000
											CHANNELS 3 Zrotation Xrotation Yrotation
											JOINT RightHandRing3
											{
												OFFSET -3.56744 0.00000 0.00000
												CHANNELS 3 Zrotation Xrotation Yrotation
												End site
												{
													OFFSET 0.00000 0.00000 0.00000
												}
											}
										}
									}
									JOINT RightHandPinky1
									{
										OFFSET -11.11390 0.00000 -6.03719
										CHANNELS 3 Zrotation Xrotation Yrotation
										JOINT RightHandPinky2
										{
											OFFSET -4.52789 0.00000 0.00000
											CHANNELS 3 Zrotation Xrotation Yrotation
											JOINT RightHandPinky3
											{
												OFFSET -2.46976 0.00000 0.00000
												CHANNELS 3 Zrotation Xrotation Yrotation
												End site
												{
													OFFSET 0.00000 0.00000 0.00000
												}
											}
										}
									}
								}
							}
						}
					}
					JOINT LeftShoulder
					{
						OFFSET 0.01000 7.91373 5.19711
						CHANNELS 3 Zrotation Xrotation Yrotation
						JOINT LeftArm
						{
							OFFSET 18.41580 0.00000 0.00000
							CHANNELS 3 Zrotation Xrotation Yrotation
							JOINT LeftForeArm
							{
								OFFSET 29.11090 0.00000 0.00000
								CHANNELS 3 Zrotation Xrotation Yrotation
								JOINT LeftHand
								{
									OFFSET 24.65040 0.00000 0.00000
									CHANNELS 3 Zrotation Xrotation Yrotation
									JOINT LeftHandThumb1
									{
										OFFSET 5.35114 -0.85590 3.97906
										CHANNELS 3 Zrotation Xrotation Yrotation
										JOINT LeftHandThumb2
										{
											OFFSET 4.52789 0.00000 0.00000
											CHANNELS 3 Zrotation Xrotation Yrotation
											JOINT LeftHandThumb3
											{
												OFFSET 2.46977 0.00000 0.00000
												CHANNELS 3 Zrotation Xrotation Yrotation
												End site
												{
													OFFSET 0.00000 0.00000 0.00000
												}
											}
										}
									}
									JOINT LeftHandIndex1
									{
										OFFSET 14.26970 0.00000 2.88139
										CHANNELS 3 Zrotation Xrotation Yrotation
										JOINT LeftHandIndex2
										{
											OFFSET 5.48836 0.00000 0.00000
											CHANNELS 3 Zrotation Xrotation Yrotation
											JOINT LeftHandIndex3
											{
												OFFSET 3.01859 0.00000 0.00000
												CHANNELS 3 Zrotation Xrotation Yrotation
												End site
												{
													OFFSET 0.00000 0.00000 0.00000
												}
											}
										}
									}
									JOINT LeftHandMiddle1
									{
										OFFSET 14.26970 0.00000 -0.09147
										CHANNELS 3 Zrotation Xrotation Yrotation
										JOINT LeftHandMiddle2
										{
											OFFSET 6.17440 0.00000 0.00000
											CHANNELS 3 Zrotation Xrotation Yrotation
											JOINT LeftHandMiddle3
											{
												OFFSET 3.56744 0.00000 0.00000
												CHANNELS 3 Zrotation Xrotation Yrotation
												End site
												{
													OFFSET 0.00000 0.00000 0.00000
												}
											}
										}
									}
									JOINT LeftHandRing1
									{
										OFFSET 12.69180 0.00000 -3.06433
										CHANNELS 3 Zrotation Xrotation Yrotation
										JOINT LeftHandRing2
										{
											OFFSET 5.62556 0.00000 0.00000
											CHANNELS 3 Zrotation Xrotation Yrotation
											JOINT LeftHandRing3
											{
												OFFSET 3.56744 0.00000 0.00000
												CHANNELS 3 Zrotation Xrotation Yrotation
												End site
												{
													OFFSET 0.00000 0.00000 0.00000
												}
											}
										}
									}
									JOINT LeftHandPinky1
									{
										OFFSET 11.11390 0.00000 -6.03719
										CHANNELS 3 Zrotation Xrotation Yrotation
										JOINT LeftHandPinky2
										{
											OFFSET 4.52789 0.00000 0.00000
											CHANNELS 3 Zrotation Xrotation Yrotation
											JOINT LeftHandPinky3
											{
												OFFSET 2.46976 0.00000 0.00000
												CHANNELS 3 Zrotation Xrotation Yrotation
												End site
												{
													OFFSET 0.00000 0.00000 0.00000
												}
											}
										}
									}
								}
							}
						}
					}
					JOINT pCube4
					{
						OFFSET 0.00000 10.91090 1.10792
						CHANNELS 3 Zrotation Xrotation Yrotation
						End site
						{
							OFFSET 0.00000 0.00000 0.00000
						}
					}
				}
			}
		}
	}
	JOINT RightUpLeg
	{
		OFFSET -9.98441 0.00000 0.00000
		CHANNELS 3 Zrotation Xrotation Yrotation
		JOINT RightLeg
		{
			OFFSET 0.00000 -42.11790 0.00000
			CHANNELS 3 Zrotation Xrotation Yrotation
			JOINT RightFoot
			{
				OFFSET 0.00000 -45.00020 -0.00001
				CHANNELS 3 Zrotation Xrotation Yrotation
				JOINT RightForeFoot
				{
					OFFSET 0.00000 -3.74820 0.00000
					CHANNELS 3 Zrotation Xrotation Yrotation
					JOINT RightToeBase
					{
						OFFSET 0.00000 0.06325 14.43120
						CHANNELS 3 Zrotation Xrotation Yrotation
						End site
						{
							OFFSET 0.00000 0.00000 0.00000
						}
					}
				}
			}
		}
	}
	JOINT LeftUpLeg
	{
		OFFSET 9.98441 0.00000 0.00000
		CHANNELS 3 Zrotation Xrotation Yrotation
		JOINT LeftLeg
		{
			OFFSET 0.00000 -42.11800 0.00000
			CHANNELS 3 Zrotation Xrotation Yrotation
			JOINT LeftFoot
			{
				OFFSET 0.00000 -45.00070 0.00000
				CHANNELS 3 Zrotation Xrotation Yrotation
				JOINT LeftForeFoot
				{
					OFFSET 0.00000 -3.74824 0.00000
					CHANNELS 3 Zrotation Xrotation Yrotation
					JOINT LeftToeBase
					{
						OFFSET 0.00000 0.06325 14.43110
						CHANNELS 3 Zrotation Xrotation Yrotation
						End site
						{
							OFFSET 0.00000 0.00000 0.00000
						}
					}
				}
			}
		}
	}
}
MOTION
Frames: 4
Frame Time: 0.050000
-0.04781474971259197 -0.038770460772879003 0.02721104137607186 -0.023982232243336774 -0.035429805342345334 0.03680060355647177 -2.891155454203207 -0.12332994709066378 -0.9080765837472896 -0.2566086740834143 3.825240005436781 0.22962554267669605 -0.7322369882618432 -2.035914785767267 -0.09551951588250622 -1.015306437560745 -1.1422671679324266 -0.6123706265929653 -0.23609533015577522 13.049392318920907 -0.12722731055762912 1.0423118108049656 -0.49130941800450195 -0.1771342872613654 1.1814997030076848 -15.217183325618032 -0.1107532343586074 -0.4829483562769248 0.5381526369659574 -13.210088537946683 63.16388932578742 -0.6334812012185507 23.648507543445003 34.03317812629651 7.698494680491064 98.25142933569518 27.52394882012131 -0.0687534756490261 -7.659730789876661 4.509045523026447 -0.10202638096663813 -1.5671581979381612 0.014311285580455715 0.01573658376037759 -56.258739696699244 -0.0046375109396654506 0.049790282170675056 -56.25799924220883 -38.75211488444109 -0.0057160204322738405 0.01566859466123802 0.025709109949123427 -0.03164972100986373 0.015588836343857417 -0.0013050518139256276 -0.019833955764587925 0.03696849099808865 -36.658957297486594 -0.025324027221187175 -0.033173368322976134 0.005276291241399972 -0.028697276272199243 0.0006438365951958523 0.009567311461185668 -0.014798802760630139 -0.025938722517084182 -19.74088562344193 -0.012723297477575547 -0.02899858517051647 -0.014249682604564856 0.017555046737836616 0.032048106712050446 -0.02767519706868811 -0.03064512900469892 0.03522716203967858 24.063058074546547 0.04676153852556276 0.040191605622855085 28.844031308917685 0.03564003535272398 -0.019428419507548315 28.847484487958393 -0.019292411325028666 0.020943032462926347 4.6273569885302495 1.2870848271998754 12.292284840825783 -68.06154396190308 25.186478039313027 -26.942465464235084 -24.560083628779363 3.5267694635659916 -97.51492020184816 -28.40438281652614 2.479265546126485 -2.692091891628694 -0.5044609523212661 0.10018326628860066 -8.081264059238823 -0.02835352768841671 -0.01405302238363101 44.55442260197975 0.02105194220697557 0.03913534736111326 44.60301146367006 12.466538335375612 -0.008084557685023353 0.03873420465508418 0.01302240766720681 0.03143667035592805 0.0012114592929587924 -0.03902956995797687 0.028467948188427447 0.009420991330598254 11.138025035374593 0.02714161764171301 -0.007137760693978491 -0.04717123814477334 -0.027516633681556164 -0.027069360264320556 0.04160468304428184 -0.009955786200332531 0.034864196210504454 4.7919627863805525 0.03343596344410826 -0.010033296205744117 -0.023232844869123418 0.02633856459216515 -0.048854525726715135 0.047528696783632314 0.00019669096628294197 -0.007053371875456452 -5.623941631309511 -0.036956458005534064 -0.020472447862509676 -6.724899298547993 0.017386330186138246 -0.03946401068408624 -6.737533482555158 0.00026963494612213646 -0.023709625943258424 -0.013066261986975289 0.00449568604157167 -0.02617295651238325 8.08334608975835 3.522087072592089 -19.19727083298181 -0.04647338569074296 10.356873130136675 0.03299997431339717 -5.626538632080747 -15.655109443077059 3.1780986264172366 0.0365282782133387 -0.030287710100003414 -0.026079252272791974 -0.048856415526104736 4.727066076490045 -0.04490231084913648 12.469711274837465 -8.25428418109993 6.9008555330111765 0.021651379217648335 46.42786240571764 0.02836791807236953 -4.351030059960956 -14.748551932565622 -3.8825330576873007 0.007657932293333865 -0.011691918771147865 -7.508460318374453e-05 0.005752777977064107 -10.758911751022756 0.015132871559477993 
0.0011297805541790726 0.02689550818293315 0.022691838447303294 0.009169098330972935 -0.027874963271708866 0.020201886104472284 -2.6072683777373085 -0.10666881597928007 -0.9825238794407078 -0.19150096221227692 3.8373627538193067 0.2081001065199331 -0.6880210163520002 -2.0405641605983456 -0.10698617522314141 -1.0158884481444332 -1.1843141617948978 -0.6059260758635377 -0.26055201658071525 13.074203809440007 -0.1587604150984766 1.0270432410408694 -0.4484821159146643 -0.01518268441589999 1.163691540667091 -15.20298425553104 -0.08331308178919482 -0.4930043253588064 0.6025649787842975 -13.335368786450648 64.15759771144708 -0.7782945612139158 22.654436782180408 32.149459467179476 7.773038258893823 98.68990822878324 26.803353526802702 -0.054435306932132645 -7.113394460837157 4.53148998631594 -0.13500379107332922 -1.6268103334198754 -0.04678141201092955 0.01957203621848879 -56.23523375119851 0.039741129438106405 0.03495142813975478 -56.269269656477455 -38.79766728558018 0.04536846817011038 0.042825859799265564 0.0010368594986109494 -0.025002859610048694 -0.011510014039093304 0.01888425115188042 0.03672524647104152 -0.006407250635389317 -36.70671497371784 -0.02525829329454969 -0.019780880968887134 0.0018083843279796694 0.0352466808601448 -0.00450095343138296 0.024219724644089072 0.035172945871480295 0.027629373561608432 -19.804228574140186 0.011258938117511743 -0.031458598270085146 0.04525304621584871 -0.02316985999410609 0.008930373257751326 -0.016375357498392345 -0.02180405687972816 -0.023339592174295872 24.060034198323336 -0.036173963691974474 -0.018589352414820518 28.879407011562208 0.045189478034791127 0.0038151144434286233 28.87163492507478 -0.033961660498357735 0.032037118733202 4.749388649078665 1.3674987653251265 12.374146521917247 -68.72477588028792 24.206533810295298 -27.048554699131888 -23.07749978152178 3.8042165721302337 -97.19852966451181 -27.684829721216 3.365032933589743 -3.530555100976418 -0.45926717786191784 0.03669595138492772 -8.127208805954563 -0.009924242750390626 0.012647476377783677 44.57597838608909 -0.022355570137288235 0.021161062571544598 44.52130280433208 12.417466014961377 0.028297397038351577 0.03788556654045008 0.008093557621438667 -0.02902115549654795 0.0379309151773266 -0.01555179368868226 -0.02919309675509037 -0.005348089049313769 11.14074011728228 -0.03933120493996081 -0.035418078909512235 0.01272932792222962 -0.046169605721072246 0.0034569369661403685 0.03911840239609189 -0.024435597227281104 0.012067215635033107 4.734725230472186 -0.015749600561149754 0.027473423677988152 0.008581613272098042 0.03146320457084175 0.027437184831186553 -0.022919902107767925 0.003967698612364537 0.0013435664291581702 -5.616675260059223 -0.02011929997280558 -0.01459752524790872 -6.72149447972865 0.01607352215343927 0.04297611810416457 -6.751203259649794 0.049780172553391025 0.00657976441222505 -0.04175633610300704 0.037774706876630586 0.04945419459944071 8.054654174451239 3.494434660000052 -19.239014383554363 0.04118707791878501 10.401434909638471 0.031088113020366286 -5.618942006548602 -15.64131447065447 3.1535609293106908 -0.014030550601525768 -0.037734358042479384 -0.007657184835860306 0.005223091874937493 4.683485826020902 0.04816686487348835 12.508395419466023 -8.193327619013884 6.902767611454605 0.03570036287314929 46.35781701236846 -0.004864827411848384 -4.34822597118531 -14.73261284779157 -3.8211424018401043 -0.03401665531976291 -0.020263924736740935 -0.018204573513357362 0.02436044397017114 -10.719192279978158 0.04637922406906653 
0.04921680643367743 -0.014688123040622848 0.01250836612255995 -0.02927456075904422 0.010076883029449575 0.045988898310771034 -2.277133311748469 -0.17153278389665627 -1.0312082004997454 -0.2345665580039589 3.8220740171095966 0.2787274230161108 -0.6254856237010777 -2.0444623866616722 -0.16685890884045684 -0.9682070442662061 -1.1860526741488606 -0.5228744071818308 -0.318943468344752 13.143365703918038 -0.10115683290179966 1.0496697626034834 -0.40316293940903214 0.26992579558051727 1.1473271499878652 -15.149879195185084 -0.0614999742134387 -0.6150620683533922 0.6637735616043114 -13.446659388151643 65.31147246050476 -0.2893433809984337 21.6400067996051 31.03511121059904 8.00473373406377 99.25198834902568 26.017610411269107 -0.094943031861715 -6.696164775038424 4.51690116973024 -0.12138934976899424 -1.585586707911246 -0.019757731674024042 -0.011408373921822897 -56.251374160231215 -0.015709824956740403 0.04590615056889094 -56.242933922207065 -38.81114033482167 0.008658393459168542 0.010618791606411385 0.016057368138744844 0.026539084379822855 -0.026480470070830774 -0.0446897695364672 0.04137630831381188 0.012586169612837326 -36.70538988612526 -0.014002508089543054 -0.04026160296355175 0.04475994120255413 -0.01018835275587211 -0.0409127311848369 0.027705570700929917 0.018725765421830465 0.03418554749619267 -19.80741485382023 -0.009725054180089043 -0.009324419494010328 0.031061073622536572 -0.04961732544722081 -0.012517749260512323 0.03764803584295527 -0.01320634050723824 -0.00633502160992972 24.066898055050615 0.0003719704357960779 -0.04132643590754016 28.83195015662264 -0.015210183257977603 0.04241781851248557 28.87847082856591 0.036729852258148926 -0.0031748454550348947 5.175113148512854 1.475816116807714 12.47425807963621 -69.64874169162174 22.89695047481144 -27.300785269282564 -23.49527173465701 4.579811070754571 -96.76582117814011 -26.78848623932341 4.308486658856695 -4.001744179235427 -0.47980312977600564 0.10332508028737455 -8.170293682769508 0.04879103559908588 -0.006495220143415289 44.52852462661151 0.010696678035843126 -0.04178411431203178 44.57347690380823 12.501466623716636 -0.020545351747932403 0.012738712934567964 0.034515123441636826 0.044014090414487984 -0.028997193471258214 0.01717805260243102 -0.031861145840784165 -0.023617060379577674 11.104457334447988 0.04395477607902247 0.03273501147582694 0.002584983978922855 0.04392749498616463 -0.04212742576604632 0.0002044923480549284 -0.010672432170734126 0.025519475127397707 4.762805902093747 -0.038263842161959924 -0.04147131476889361 0.04081010529246208 0.0225028674420303 0.03210863461430314 -0.00041803291142705686 -0.03665409213964436 0.04242941596429982 -5.604081656698274 -0.03077399317534066 -0.04704353931451422 -6.749099567323346 0.01682635890911871 -0.00259715980354056 -6.744849622392087 0.002704034331270104 -0.0008806543040270893 -0.014198795608572996 0.01935671352858016 0.01965737740208568 8.021960751707189 3.476320277124879 -19.188980249295163 0.03945076666334885 10.362037482428581 0.036717947706565744 -5.64052124751531 -15.633861586268743 3.2082801882979393 0.01967719671129797 0.004770894245285686 0.009098332900233676 -0.032324382712312576 4.683853696101359 -0.029444417629368256 12.42881275917063 -8.209951327360177 6.875037592571152 -0.04606413862259668 46.34562214597015 0.03777813725963381 -4.336476845714973 -14.738945512999576 -3.809831512456814 0.01902643033848873 -0.026928250940944257 -0.024713322078804868 0.00926876150513975 -10.703981900917283 -0.005707408933959703 
-0.018587143718946385 -0.03992511305577898 -0.0024736652792183822 0.046596198575825795 -0.01642513403862949 0.003212077006789242 -1.91413064956261 -0.2636266612920741 -1.148770193663155 -0.22265116850818684 3.8202495387222877 0.2932838231616518 -0.599523015282764 -2.063061771398641 -0.14566672104511383 -1.0247545318161473 -1.231704981476288 -0.5175039748831095 -0.3183783526351778 13.176069292468737 -0.02825921496299872 1.0441281331735106 -0.29791154428745614 0.5507825108145893 1.193816990325295 -15.014305062518533 -0.005005715466054838 -0.7867937387832 0.6869803560369684 -13.56373093920035 66.27659549077526 0.37654721322637535 21.052111181715496 30.343236730034032 8.241759946332524 99.58954921414382 25.330538976365762 -0.15550741639535492 -6.387340327076481 4.539664920010545 -0.10897991421813923 -1.627241510337408 0.018611361841074984 0.016988401544404126 -56.244559036154826 0.0020478679784387862 0.02917924370576061 -56.25334745462803 -38.762100874349244 0.001268585278786141 0.04562442135367947 0.0061386329814953075 -0.018594142994512838 -0.03508929511107592 0.031243188273579456 0.004543332878696442 0.004436065015056419 -36.68310026492368 0.006300307987229763 -0.014037940995419421 -0.016667307307102624 0.003218606092791441 0.027056937978845657 0.020868649531539912 0.02692518559281103 -0.03341657435763643 -19.745492474166948 -0.022338145778578573 0.009895913670258176 -0.03338612418628439 0.017995054720074538 0.0213431807580422 -0.007893933580156162 0.023176200730307375 0.008066081979400064 24.0504336880169 0.02381166566457246 0.019959348875026397 28.866937882955952 0.04148095726475732 -0.042253715715271103 28.83158334488205 0.036484861875736845 0.023225488442354624 5.580785945490527 1.5288998795909863 12.48594702849165 -70.32729619677794 21.68225601597213 -27.88995475092394 -24.671917550452957 5.318531444185482 -96.43946503074869 -26.1817163088177 4.709166238722832 -4.273506738522815 -0.5071762384249645 0.07224479166423288 -8.086291394244132 0.005920460423628657 -0.0399115994110661 44.569127416181935 0.008274984714845142 -0.026293479760163104 44.57079951713938 12.464029410021057 0.03273076099927201 -0.02158419631768752 -0.048048496048286905 -0.019780795432666903 0.017376426379963138 -0.032913578939676634 -0.03478438648267757 -0.01967371337253323 11.08063376095041 0.03960652845075613 -0.009436750160800695 -0.018427005584567988 -0.010329506866843748 -0.021533368212254936 0.011095400052322053 -0.006967105210180323 0.015090680743512245 4.774868438326983 0.011897690224331094 -0.020486868887487717 -0.0433130257233811 -0.02415851495351038 0.00971859279210167 0.011109102580163982 0.048856975802693964 0.02776486501287193 -5.637559246335771 -0.002106081130870263 0.0457364450939333 -6.702832322498194 -0.0009176091559024341 -0.012488043333323968 -6.673544001531251 -0.015200690313970906 -0.03266834470147559 -0.008752334158626798 -0.016773005454027032 -0.02014891010744256 8.040291290720372 3.515253889676486 -19.26600807689228 -0.03462830048869184 10.380579293584093 0.004591431263993469 -5.627811740599078 -15.655815855138442 3.173343998142697 0.048328649584853445 -0.0002642527351689479 0.04761205184843575 -0.021296016240022704 4.658667493952811 -0.046287706725060544 12.468205812634068 -8.253486067020551 6.932842438100903 0.004818769255058376 46.413164071675524 0.03415844420116308 -4.355504541268718 -14.702291254371396 -3.82670452034575 -0.0009507345865624159 0.0300086055918532 -0.03447701413919926 -0.02239272887672029 -10.732050661712698 -0.024856892944298672 
